#filter dumbComments emptyLines substitution
# This Source Code Form is subject to the terms of the Mozilla Public
# License, v. 2.0. If a copy of the MPL was not distributed with this
# file, You can obtain one at http://mozilla.org/MPL/2.0/.
<svg fill="context-fill" fill-opacity="context-fill-opacity" height="18" width="18" viewBox="0 0 18 18" xmlns="http://www.w3.org/2000/svg" xmlns:svg="http://www.w3.org/2000/svg"><path class="nc-icon-wrapper" d="M 14.609,5.342 C 12.07,3.957 10.399,1.373 10.382,1.347 10.202,1.066 9.861,0.937 9.539,1.031 9.22,1.125 8.999,1.418 8.999,1.751 v 8.518 C 8.37,9.793 7.596,9.5 6.749,9.5 c -2.068,0 -3.75,1.682 -3.75,3.75 0,2.068 1.682,3.75 3.75,3.75 2.068,0 3.75,-1.682 3.75,-3.75 V 3.915 c 0.82,0.903 1.977,1.972 3.391,2.743 0.363,0.198 0.819,0.065 1.018,-0.299 0.199,-0.364 0.064,-0.819 -0.299,-1.018 z"/></svg>