#filter dumbComments emptyLines substitution
# This Source Code Form is subject to the terms of the Mozilla Public
# License, v. 2.0. If a copy of the MPL was not distributed with this
# file, You can obtain one at http://mozilla.org/MPL/2.0/.
<svg fill="none" stroke="context-fill" stroke-width="1.5" stroke-opacity="context-fill-opacity" height="18" width="18" viewBox="0 0 18 18" xmlns="http://www.w3.org/2000/svg" xmlns:svg="http://www.w3.org/2000/svg"><path class="nc-icon-wrapper" d="M 2,16 16,2 M 5,6.25 A 0.75,0.75 0 0 1 4.25,7 0.75,0.75 0 0 1 3.5,6.25 0.75,0.75 0 0 1 4.25,5.5 0.75,0.75 0 0 1 5,6.25 Z m 2.055,4.695 C 6.557,10.447 6.25,9.76 6.25,9 6.25,7.481 7.481,6.25 9,6.25 c 0.759,0 1.447,0.308 1.945,0.805 M 14.25,3.75 H 12 L 11.493,2.399 C 11.347,2.009 10.974,1.75 10.557,1.75 H 7.443 c -0.417,0 -0.79,0.259 -0.936,0.649 L 6,3.75 H 3.75 c -1.105,0 -2,0.895 -2,2 v 6.5 c 0,1.105 0.895,2 2,2 m 3.535,0 h 6.965 c 1.105,0 2,-0.895 2,-2 v -6.5 c 0,-0.138 -0.014,-0.273 -0.041,-0.403"/></svg>