#filter dumbComments emptyLines substitution
# This Source Code Form is subject to the terms of the Mozilla Public
# License, v. 2.0. If a copy of the MPL was not distributed with this
# file, You can obtain one at http://mozilla.org/MPL/2.0/.
<svg fill="context-fill" fill-opacity="context-fill-opacity" height="18" width="18" viewBox="0 0 18 18" xmlns="http://www.w3.org/2000/svg" xmlns:svg="http://www.w3.org/2000/svg"><path class="nc-icon-wrapper" d="M 10.2,15 H 7.801 C 7.65,15 7.508,15.068 7.413,15.185 7.318,15.302 7.281,15.456 7.312,15.603 7.485,16.425 8.18,17 9.001,17 9.822,17 10.517,16.425 10.69,15.603 10.721,15.456 10.684,15.302 10.589,15.185 10.494,15.068 10.352,15 10.201,15 Z m 5.55,-2.5 c -0.689,0 -1.25,-0.561 -1.25,-1.25 V 6.5 C 14.5,3.467 12.033,1 9,1 5.967,1 3.5,3.467 3.5,6.5 v 4.75 c 0,0.689 -0.561,1.25 -1.25,1.25 -0.414,0 -0.75,0.336 -0.75,0.75 0,0.414 0.336,0.75 0.75,0.75 h 13.5 c 0.414,0 0.75,-0.336 0.75,-0.75 0,-0.414 -0.336,-0.75 -0.75,-0.75 z"/></svg>