#filter dumbComments emptyLines substitution
# This Source Code Form is subject to the terms of the Mozilla Public
# License, v. 2.0. If a copy of the MPL was not distributed with this
# file, You can obtain one at http://mozilla.org/MPL/2.0/.
<svg fill="none" stroke="context-fill" stroke-width="1.5" stroke-opacity="context-fill-opacity" height="18" width="18" viewBox="0 0 18 18" xmlns="http://www.w3.org/2000/svg" xmlns:svg="http://www.w3.org/2000/svg"><path class="nc-icon-wrapper" d="M 7.5,5.25 A 0.75,0.75 0 0 1 6.75,6 0.75,0.75 0 0 1 6,5.25 0.75,0.75 0 0 1 6.75,4.5 0.75,0.75 0 0 1 7.5,5.25 Z M 5,5.25 A 0.75,0.75 0 0 1 4.25,6 0.75,0.75 0 0 1 3.5,5.25 0.75,0.75 0 0 1 4.25,4.5 0.75,0.75 0 0 1 5,5.25 Z m 11.25,3.034 v 4.966 c 0,1.105 -0.895,2 -2,2 H 3.75 c -1.105,0 -2,-0.895 -2,-2 v -8.5 c 0,-1.105 0.895,-2 2,-2 h 6.965 M 5.75,11.815 c 2.162,0.65 3.917,0.704 5.351,-0.764 0.865,-0.868 0.865,-2.276 0,-3.145 C 10.236,7.037 8.84,7.025 7.968,7.906 6.55,9.34 7.788,10.701 5.75,11.815 Z m 6,-2.568 5.086,-5.083 c 0.552,-0.552 0.552,-1.448 0,-2 -0.552,-0.552 -1.448,-0.552 -2,0 L 9.742,7.26"/></svg>