#filter dumbComments emptyLines substitution
# This Source Code Form is subject to the terms of the Mozilla Public
# License, v. 2.0. If a copy of the MPL was not distributed with this
# file, You can obtain one at http://mozilla.org/MPL/2.0/.
<svg fill="none" stroke="context-fill" stroke-width="1.5" stroke-opacity="context-fill-opacity" height="18" width="18" viewBox="0 0 18 18" xmlns="http://www.w3.org/2000/svg" xmlns:svg="http://www.w3.org/2000/svg"><path class="nc-icon-wrapper" d="m 14.75,8.25 c 0.372,0 0.716,0.118 1,0.317 V 6.25 c 0,-1.104 -0.895,-2 -2,-2 H 11.433 C 11.631,3.966 11.75,3.623 11.75,3.25 11.75,2.283 10.966,1.5 10,1.5 9.034,1.5 8.25,2.283 8.25,3.25 c 0,0.373 0.118,0.716 0.317,1 H 6.25 c -1.105,0 -2,0.896 -2,2 V 8.567 C 3.966,8.369 3.622,8.25 3.25,8.25 2.284,8.25 1.5,9.033 1.5,10 c 0,0.967 0.784,1.75 1.75,1.75 0.372,0 0.716,-0.118 1,-0.317 v 2.317 c 0,1.104 0.895,2 2,2 H 8.567 C 8.369,15.466 8.25,15.123 8.25,14.75 8.25,13.783 9.034,13 10,13 c 0.966,0 1.75,0.783 1.75,1.75 0,0.373 -0.118,0.716 -0.317,1 h 2.317 c 1.105,0 2,-0.896 2,-2 v -2.317 c -0.284,0.198 -0.628,0.317 -1,0.317 C 13.784,11.75 13,10.967 13,10 13,9.033 13.784,8.25 14.75,8.25 Z"/></svg>