#filter dumbComments emptyLines substitution
# This Source Code Form is subject to the terms of the Mozilla Public
# License, v. 2.0. If a copy of the MPL was not distributed with this
# file, You can obtain one at http://mozilla.org/MPL/2.0/.
<svg fill="context-fill" fill-opacity="context-fill-opacity" height="18" width="18" viewBox="0 0 18 18" xmlns="http://www.w3.org/2000/svg" xmlns:svg="http://www.w3.org/2000/svg"><path class="nc-icon-wrapper" d="m 15.414,8.665 c 0.233,0.117 0.509,0.104 0.73,-0.032 C 16.365,8.496 16.5,8.255 16.5,7.995 V 6.251 c 0,-1.517 -1.233,-2.75 -2.75,-2.75 H 11.975 C 11.985,3.418 12,3.337 12,3.251 c 0,-1.103 -0.897,-2 -2,-2 -1.103,0 -2,0.897 -2,2 0,0.086 0.015,0.167 0.025,0.25 H 6.25 C 4.733,3.501 3.5,4.734 3.5,6.251 V 8.026 C 3.417,8.015 3.336,8.001 3.25,8.001 c -1.103,0 -2,0.897 -2,2 0,1.103 0.897,2 2,2 0.086,0 0.167,-0.015 0.25,-0.025 v 1.775 c 0,1.517 1.233,2.75 2.75,2.75 h 1.744 c 0.26,0 0.501,-0.135 0.638,-0.355 0.136,-0.221 0.149,-0.498 0.033,-0.73 C 8.556,15.197 8.5,14.974 8.5,14.751 c 0,-0.827 0.673,-1.5 1.5,-1.5 0.827,0 1.5,0.673 1.5,1.5 0,0.221 -0.056,0.445 -0.166,0.666 -0.116,0.232 -0.103,0.508 0.034,0.729 0.137,0.221 0.378,0.355 0.638,0.355 h 1.744 c 1.517,0 2.75,-1.233 2.75,-2.75 v -1.744 c 0,-0.26 -0.135,-0.501 -0.356,-0.638 -0.221,-0.137 -0.498,-0.15 -0.73,-0.032 -1.027,0.515 -2.164,-0.285 -2.164,-1.335 0,-1.05 1.134,-1.85 2.164,-1.335 z"/></svg>