#filter dumbComments emptyLines substitution
# This Source Code Form is subject to the terms of the Mozilla Public
# License, v. 2.0. If a copy of the MPL was not distributed with this
# file, You can obtain one at http://mozilla.org/MPL/2.0/.
<svg fill="context-fill" width="18px" height="18px" viewBox="0 0 18 18" xmlns="http://www.w3.org/2000/svg" xmlns:svg="http://www.w3.org/2000/svg"><path d="M 17.25,8.25 H 15.958 C 15.812,6.881 15.268,5.631 14.446,4.613 L 16.029,3.03 c 0.293,-0.293 0.293,-0.768 0,-1.061 -0.293,-0.293 -0.767,-0.294 -1.061,0 L 13.385,3.552 C 12.367,2.731 11.117,2.187 9.749,2.041 V 0.75 C 9.749,0.336 9.413,0 8.999,0 8.585,0 8.249,0.336 8.249,0.75 V 2.042 C 6.881,2.188 5.631,2.732 4.613,3.553 L 3.03,1.97 C 2.737,1.677 2.262,1.677 1.969,1.97 1.676,2.263 1.676,2.738 1.969,3.031 L 3.552,4.614 C 2.731,5.632 2.187,6.882 2.041,8.251 H 0.75 C 0.336,8.251 0,8.587 0,9.001 c 0,0.414 0.336,0.75 0.75,0.75 h 1.292 c 0.146,1.369 0.69,2.619 1.511,3.637 L 1.97,14.971 c -0.293,0.293 -0.293,0.768 0,1.061 0.146,0.146 0.338,0.22 0.53,0.22 0.191,0 0.384,-0.073 0.53,-0.22 l 1.583,-1.583 c 1.018,0.821 2.268,1.365 3.636,1.511 v 1.292 c 0,0.414 0.336,0.75 0.75,0.75 0.414,0 0.75,-0.336 0.75,-0.75 V 15.96 c 1.368,-0.146 2.618,-0.69 3.636,-1.511 l 1.583,1.583 c 0.146,0.146 0.338,0.22 0.53,0.22 0.192,0 0.384,-0.073 0.53,-0.22 0.293,-0.293 0.293,-0.768 0,-1.061 L 14.445,13.388 C 15.266,12.37 15.81,11.12 15.957,9.751 h 1.292 c 0.414,0 0.75,-0.336 0.75,-0.75 0,-0.414 -0.336,-0.75 -0.75,-0.75 z M 6,10 C 5.448,10 5,9.552 5,9 5,8.448 5.448,8 6,8 6.552,8 7,8.448 7,9 7,9.552 6.552,10 6,10 Z m 3,2 C 8.172,12 7.5,11.328 7.5,10.5 7.5,10.224 7.724,10 8,10 h 2 c 0.276,0 0.5,0.224 0.5,0.5 0,0.828 -0.672,1.5 -1.5,1.5 z m 2,-3 c 0,-0.552 0.448,-1 1,-1 0.552,0 1,0.448 1,1 0,0.552 -0.448,1 -1,1 -0.552,0 -1,-0.448 -1,-1 z"/></svg>