#filter dumbComments emptyLines substitution
# This Source Code Form is subject to the terms of the Mozilla Public
# License, v. 2.0. If a copy of the MPL was not distributed with this
# file, You can obtain one at http://mozilla.org/MPL/2.0/.
<svg fill="context-fill" fill-opacity="context-fill-opacity" height="18" width="18" viewBox="0 0 18 18" xmlns="http://www.w3.org/2000/svg" xmlns:svg="http://www.w3.org/2000/svg"><path class="nc-icon-wrapper" d="M 9,1 C 5.791,1 2.471,3.344 2.471,7.267 c 0,2.792 3.252,6.915 5.189,9.125 0.339,0.387 0.827,0.609 1.34,0.609 0.513,0 1.001,-0.222 1.339,-0.608 1.938,-2.21 5.19,-6.335 5.19,-9.125 C 15.529,3.346 12.209,1.001 9,1.001 Z M 9,9.25 C 8.033,9.25 7.25,8.466 7.25,7.5 7.25,6.534 8.033,5.75 9,5.75 c 0.967,0 1.75,0.784 1.75,1.75 0,0.966 -0.783,1.75 -1.75,1.75 z"/></svg>