#filter dumbComments emptyLines substitution
# This Source Code Form is subject to the terms of the Mozilla Public
# License, v. 2.0. If a copy of the MPL was not distributed with this
# file, You can obtain one at http://mozilla.org/MPL/2.0/.
<svg fill="none" stroke="context-fill" stroke-width="1.5" stroke-opacity="context-fill-opacity" height="18" width="18" viewBox="0 0 18 18" xmlns="http://www.w3.org/2000/svg" xmlns:svg="http://www.w3.org/2000/svg"><path class="nc-icon-wrapper" d="M 10.75,7.5 A 1.75,1.75 0 0 1 9,9.25 1.75,1.75 0 0 1 7.25,7.5 1.75,1.75 0 0 1 9,5.75 1.75,1.75 0 0 1 10.75,7.5 Z m 4.029,-0.234 c 0,2.622 -3.428,6.833 -5.004,8.631 -0.413,0.471 -1.139,0.471 -1.551,0 C 6.648,14.1 3.22,9.889 3.22,7.266 3.221,3.776 6.207,1.75 9,1.75 c 2.793,0 5.779,2.026 5.779,5.516 z"/></svg>