#filter dumbComments emptyLines substitution
# This Source Code Form is subject to the terms of the Mozilla Public
# License, v. 2.0. If a copy of the MPL was not distributed with this
# file, You can obtain one at http://mozilla.org/MPL/2.0/.
<svg fill="context-fill" fill-opacity="context-fill-opacity" height="18" width="18" viewBox="0 0 18 18" xmlns="http://www.w3.org/2000/svg" xmlns:svg="http://www.w3.org/2000/svg"><path class="nc-icon-wrapper" d="m 9,1 c 4.4183,0 8,3.58172 8,8 0,4.4183 -3.5817,8 -8,8 C 4.58172,17 1,13.4183 1,9 1,4.58172 4.58172,1 9,1 Z m 1.7285,4.55176 C 10.0566,5.5598 9.42663,5.86058 9,6.36914 8.57267,5.86121 7.94219,5.56042 7.26758,5.55176 6.01248,5.55999 4.99539,6.58541 5,7.83789 5,10.5743 7.79989,12.25 8.6582,12.6982 c 0.10658,0.056 0.22426,0.083 0.34082,0.083 0.11659,0 0.23488,-0.0277 0.34082,-0.083 C 10.1978,12.2503 12.9989,10.5754 12.999,7.83887 13.0037,6.58553 11.9872,5.55909 10.7285,5.55176 Z"/></svg>