#filter dumbComments emptyLines substitution
# This Source Code Form is subject to the terms of the Mozilla Public
# License, v. 2.0. If a copy of the MPL was not distributed with this
# file, You can obtain one at http://mozilla.org/MPL/2.0/.
<svg fill="none" stroke="context-fill" stroke-width="1.5" stroke-opacity="context-fill-opacity" height="18" width="18" viewBox="0 0 18 18" xmlns="http://www.w3.org/2000/svg" xmlns:svg="http://www.w3.org/2000/svg"><path class="nc-icon-wrapper" d="M 1,15.25 H 17 M 2.75,8.75 h 3 m 0,-1.5 h 4 m 1.184,2.0220003 3.341,-1.0440006 m -3.571528,-3.0469138 1.431799,-0.447162 c 0.52881,-0.1651518 1.087488,0.1276133 1.25264,0.6564241 l 2.533918,8.113523 c 0.165152,0.528811 -0.127614,1.087489 -0.656424,1.252641 l -1.431799,0.447162 c -0.52881,0.165151 -1.087488,-0.127614 -1.25264,-0.656425 L 10.047048,6.433726 C 9.8818964,5.9049152 10.174662,5.3462377 10.703472,5.1810859 Z M 3.75,4.75 h 1 c 0.554,0 1,0.446 1,1 v 8.5 c 0,0.554 -0.446,1 -1,1 h -1 c -0.554,0 -1,-0.446 -1,-1 v -8.5 c 0,-0.554 0.446,-1 1,-1 z m 3,-2 h 2 c 0.554,0 1,0.446 1,1 v 10.5 c 0,0.554 -0.446,1 -1,1 h -2 c -0.554,0 -1,-0.446 -1,-1 V 3.75 c 0,-0.554 0.446,-1 1,-1 z"/></svg>