#filter dumbComments emptyLines substitution
# This Source Code Form is subject to the terms of the Mozilla Public
# License, v. 2.0. If a copy of the MPL was not distributed with this
# file, You can obtain one at http://mozilla.org/MPL/2.0/.
<svg fill="none" stroke="context-fill" stroke-width="1.5" stroke-opacity="context-fill-opacity" height="18" width="18" viewBox="0 0 18 18" xmlns="http://www.w3.org/2000/svg" xmlns:svg="http://www.w3.org/2000/svg"><path class="nc-icon-wrapper" d="m 9.5,11.173 c 0.352,-0.168 0.682,-0.398 0.973,-0.69 l 0.01,-0.01 c 1.381,-1.381 1.381,-3.619 0,-5 L 8.308,3.298 c -1.381,-1.381 -3.619,-1.381 -5,0 l -0.01,0.01 c -1.381,1.381 -1.381,3.619 0,5 L 4.229,9.239 M 8.5,6.827 C 8.148,6.995 7.818,7.225 7.527,7.517 l -0.01,0.01 c -1.381,1.381 -1.381,3.619 0,5 l 2.175,2.175 c 1.381,1.381 3.619,1.381 5,0 l 0.01,-0.01 c 1.381,-1.381 1.381,-3.619 0,-5 L 13.771,8.761"/></svg>