#filter dumbComments emptyLines substitution
# This Source Code Form is subject to the terms of the Mozilla Public
# License, v. 2.0. If a copy of the MPL was not distributed with this
# file, You can obtain one at http://mozilla.org/MPL/2.0/.
<svg fill="currentColor" fill-opacity="context-fill-opacity" width="16" height="16" xmlns="http://www.w3.org/2000/svg" xmlns:svg="http://www.w3.org/2000/svg"><path d="M 2.5,1 A 2.5,2.5 0 0 0 0,3.5 v 8 A 2.5,2.5 0 0 0 2.5,14 h 11 A 2.5,2.5 0 0 0 16,11.5 v -8 A 2.5,2.5 0 0 0 13.5,1 Z m 0,1 h 11 A 1.5,1.5 0 0 1 15,3.5 V 3.8 L 8,7.92 1,3.803 V 3.5 A 1.5,1.5 0 0 1 2.5,2 Z M 15,4.961 V 11.5 A 1.5,1.5 0 0 1 13.5,13 H 2.5 A 1.5,1.5 0 0 1 1,11.5 V 4.963 L 7.746,8.932 7.828,8.969 A 0.5,0.5 0 0 0 8.254,8.932 Z"/></svg>