#filter dumbComments emptyLines substitution
# This Source Code Form is subject to the terms of the Mozilla Public
# License, v. 2.0. If a copy of the MPL was not distributed with this
# file, You can obtain one at http://mozilla.org/MPL/2.0/.
<svg fill="context-fill" width="18px" height="18px" viewBox="0 0 18 18" xmlns="http://www.w3.org/2000/svg" xmlns:svg="http://www.w3.org/2000/svg"><path d="M 15.25,2 C 14.836,2 14.5,2.336 14.5,2.75 v 12.5 C 14.5,15.664 14.836,16 15.25,16 15.664,16 16,15.664 16,15.25 V 2.75 C 16,2.336 15.664,2 15.25,2 Z M 12.667,7.59 4.413,3.021 C 3.902,2.738 3.297,2.746 2.795,3.043 2.297,3.336 2,3.855 2,4.43 v 9.14 c 0,0.575 0.297,1.094 0.795,1.387 0.258,0.152 0.542,0.229 0.828,0.229 0.271,0 0.542,-0.069 0.791,-0.207 l 8.254,-4.57 c 0.514,-0.285 0.833,-0.825 0.833,-1.41 0,-0.585 -0.319,-1.125 -0.833,-1.41 z"/></svg>