#filter dumbComments emptyLines substitution
# This Source Code Form is subject to the terms of the Mozilla Public
# License, v. 2.0. If a copy of the MPL was not distributed with this
# file, You can obtain one at http://mozilla.org/MPL/2.0/.
<svg fill="context-fill" fill-opacity="context-fill-opacity" width="18px" height="18px" viewBox="0 0 18 18" xmlns="http://www.w3.org/2000/svg" xmlns:svg="http://www.w3.org/2000/svg"><path d="m 15.329,5.111 c -0.293,0.293 -0.293,0.768 0,1.061 1.56,1.56 1.56,4.098 0,5.657 -0.293,0.293 -0.293,0.768 0,1.061 0.146,0.146 0.338,0.22 0.53,0.22 0.192,0 0.384,-0.073 0.53,-0.22 C 17.428,11.851 18,10.47 18,9.001 18,7.532 17.428,6.15 16.389,5.112 c -0.293,-0.293 -0.768,-0.293 -1.061,0 z m -0.885,1.945 c -0.293,-0.293 -0.769,-0.293 -1.061,0 -0.293,0.293 -0.293,0.768 0,1.061 0.236,0.236 0.366,0.55 0.366,0.884 0,0.334 -0.13,0.647 -0.366,0.884 -0.293,0.292 -0.293,0.768 0,1.061 0.146,0.146 0.338,0.22 0.53,0.22 0.192,0 0.384,-0.073 0.53,-0.22 0.52,-0.519 0.806,-1.209 0.806,-1.944 0,-0.735 -0.286,-1.425 -0.806,-1.944 z M 11.35,1.567 C 10.95,1.348 10.461,1.364 10.077,1.611 L 4.782,5 H 2.25 C 1.009,5 0,6.009 0,7.25 v 3.5 C 0,11.991 1.009,13 2.25,13 h 2.531 l 5.295,3.389 c 0.205,0.131 0.439,0.198 0.675,0.198 0.206,0 0.412,-0.051 0.599,-0.153 C 11.751,16.215 12,15.794 12,15.337 V 2.664 C 12,2.207 11.751,1.787 11.35,1.567 Z"/></svg>