#filter dumbComments emptyLines substitution
# This Source Code Form is subject to the terms of the Mozilla Public
# License, v. 2.0. If a copy of the MPL was not distributed with this
# file, You can obtain one at http://mozilla.org/MPL/2.0/.
<svg fill="none" stroke="context-fill" stroke-width="1.5" stroke-opacity="context-fill-opacity" height="18" width="18" viewBox="0 0 18 18" xmlns="http://www.w3.org/2000/svg" xmlns:svg="http://www.w3.org/2000/svg"><path class="nc-icon-wrapper" d="M 15.25,9 A 0.5,0.5 0 0 1 14.75,9.5 0.5,0.5 0 0 1 14.25,9 0.5,0.5 0 0 1 14.75,8.5 0.5,0.5 0 0 1 15.25,9 Z M 3.75,9 A 0.5,0.5 0 0 1 3.25,9.5 0.5,0.5 0 0 1 2.75,9 0.5,0.5 0 0 1 3.25,8.5 0.5,0.5 0 0 1 3.75,9 Z M 9.5,9 A 0.5,0.5 0 0 1 9,9.5 0.5,0.5 0 0 1 8.5,9 0.5,0.5 0 0 1 9,8.5 0.5,0.5 0 0 1 9.5,9 Z"/></svg>