#filter dumbComments emptyLines substitution
# This Source Code Form is subject to the terms of the Mozilla Public
# License, v. 2.0. If a copy of the MPL was not distributed with this
# file, You can obtain one at http://mozilla.org/MPL/2.0/.
<svg fill="context-fill" stroke-opacity="context-fill-opacity" width="18px" height="18px" viewBox="0 0 18 18" xmlns="http://www.w3.org/2000/svg" xmlns:svg="http://www.w3.org/2000/svg"><path d="m 2,16.75 c -0.192,0 -0.384,-0.073 -0.53,-0.22 -0.293,-0.293 -0.293,-0.768 0,-1.061 l 14,-13.999 c 0.293,-0.293 0.768,-0.293 1.061,0 0.293,0.293 0.293,0.768 0,1.061 L 2.53,16.53 C 2.384,16.676 2.192,16.75 2,16.75 Z m 13.25,-9.5 c -0.414,0 -0.75,0.336 -0.75,0.75 0,3.033 -2.467,5.5 -5.5,5.5 -0.408,0 -0.804,-0.048 -1.186,-0.132 l -1.203,1.203 c 0.521,0.19 1.069,0.327 1.639,0.388 v 1.292 c 0,0.414 0.336,0.75 0.75,0.75 0.414,0 0.75,-0.336 0.75,-0.75 V 14.959 C 13.258,14.583 16,11.607 16,8.001 16,7.587 15.664,7.251 15.25,7.251 Z M 4.583,13.417 5.649,12.351 C 4.345,11.345 3.5,9.771 3.5,8 3.5,7.586 3.164,7.25 2.75,7.25 2.336,7.25 2,7.586 2,8 c 0,2.185 1.01,4.133 2.583,5.417 z m 4.619,-1.438 c 2.042,-0.104 3.673,-1.736 3.777,-3.777 z M 6.721,11.279 13,5 C 13,2.794 11.206,1 9,1 6.794,1 5,2.794 5,5 v 3 c 0,1.358 0.683,2.556 1.721,3.279 z"/></svg>