#filter dumbComments emptyLines substitution
# This Source Code Form is subject to the terms of the Mozilla Public
# License, v. 2.0. If a copy of the MPL was not distributed with this
# file, You can obtain one at http://mozilla.org/MPL/2.0/.
<svg fill="currentColor" fill-opacity="context-fill-opacity" width="16" height="16" xmlns="http://www.w3.org/2000/svg" xmlns:svg="http://www.w3.org/2000/svg"><path d="M 0.5,2 A 0.5,0.5 0 0 0 0,2.5 v 11 A 0.5,0.5 0 0 0 0.5,14 h 15 A 0.5,0.5 0 0 0 16,13.5 V 2.5 A 0.5,0.5 0 0 0 15.5,2 Z M 1,3 H 15 V 7 H 1 Z m 2.711,1 a 0.75,0.75 0 1 0 0.04,0 z M 10.5,4 a 0.5,0.5 0 0 0 0,1 h 2 a 0.5,0.5 0 0 0 0,-1 z M 6.211,4.002 a 0.75,0.75 0 1 0 0.04,0 z M 1,8 h 2 v 3.5 a 0.5,0.5 0 0 0 1,0 V 8 h 2 v 3.5 a 0.5,0.5 0 0 0 1,0 V 8 h 2 v 3.5 a 0.5,0.5 0 0 0 1,0 V 8 h 2 v 3.5 a 0.5,0.5 0 0 0 1,0 V 8 h 2 v 5 H 1 Z"/></svg>