#filter dumbComments emptyLines substitution
# This Source Code Form is subject to the terms of the Mozilla Public
# License, v. 2.0. If a copy of the MPL was not distributed with this
# file, You can obtain one at http://mozilla.org/MPL/2.0/.
<svg fill="context-fill" width="18px" height="18px" viewBox="0 0 18 18" xmlns="http://www.w3.org/2000/svg" xmlns:svg="http://www.w3.org/2000/svg"><path d="M 15,7.75 A 0.75,0.75 0 0 1 14.25,8.5 0.75,0.75 0 0 1 13.5,7.75 0.75,0.75 0 0 1 14.25,7 0.75,0.75 0 0 1 15,7.75 Z M 12.743,4.492 11.797,4.177 11.481,3.23 C 11.379,2.924 10.872,2.924 10.77,3.23 L 10.454,4.177 9.508,4.492 C 9.355,4.543 9.251,4.686 9.251,4.848 c 0,0.162 0.104,0.305 0.257,0.356 l 0.946,0.315 0.316,0.947 c 0.051,0.153 0.194,0.256 0.355,0.256 0.161,0 0.305,-0.104 0.355,-0.256 l 0.316,-0.947 0.946,-0.315 c 0.153,-0.051 0.257,-0.194 0.257,-0.356 0,-0.162 -0.104,-0.305 -0.257,-0.356 z m 3.962,5.731 C 16.459,10.04 16.127,10.026 15.867,10.186 14.999,10.718 14.008,10.999 13,10.999 9.967,10.999 7.5,8.532 7.5,5.499 7.5,4.353 7.854,3.252 8.523,2.313 8.7,2.064 8.709,1.732 8.544,1.474 8.38,1.216 8.077,1.088 7.774,1.14 3.994,1.847 1.25,5.152 1.25,9 c 0,4.411 3.589,8 8,8 3.638,0 6.819,-2.461 7.735,-5.986 0.077,-0.296 -0.034,-0.609 -0.28,-0.791 z"/></svg>