#filter dumbComments emptyLines substitution
# This Source Code Form is subject to the terms of the Mozilla Public
# License, v. 2.0. If a copy of the MPL was not distributed with this
# file, You can obtain one at http://mozilla.org/MPL/2.0/.
<svg fill="none" stroke="context-fill" stroke-width="1.5" stroke-opacity="context-fill-opacity" height="18" width="18" viewBox="0 0 18 18" xmlns="http://www.w3.org/2000/svg" xmlns:svg="http://www.w3.org/2000/svg"><path class="nc-icon-wrapper" d="m 6.5,12.5 a 1,1 0 0 1 -1,1 1,1 0 0 1 -1,-1 1,1 0 0 1 1,-1 1,1 0 0 1 1,1 z M 15.747,2.076 12.9,2.253 7.009,8.144 C 6.685,8.06 6.351,8 6,8 3.791,8 2,9.791 2,12 c 0,2.209 1.791,4 4,4 2.209,0 4,-1.791 4,-4 0,-0.362 -0.064,-0.707 -0.154,-1.041 L 11.75,9 V 6.75 H 14 l 1.753,-1.645 z"/></svg>