#filter dumbComments emptyLines substitution
# This Source Code Form is subject to the terms of the Mozilla Public
# License, v. 2.0. If a copy of the MPL was not distributed with this
# file, You can obtain one at http://mozilla.org/MPL/2.0/.
<svg fill="none" stroke="context-fill" stroke-width="1.5" stroke-opacity="context-fill-opacity" height="18" width="18" viewBox="0 0 18 18" xmlns="http://www.w3.org/2000/svg" xmlns:svg="http://www.w3.org/2000/svg"><path class="nc-icon-wrapper" d="m 11.702,16.298 4.59,-4.59 M 17.25,14 A 3.25,3.25 0 0 1 14,17.25 3.25,3.25 0 0 1 10.75,14 3.25,3.25 0 0 1 14,10.75 3.25,3.25 0 0 1 17.25,14 Z m -1,-5.291 V 4.75 c 0,-1.104 -0.895,-2 -2,-2 H 3.75 c -1.105,0 -2,0.896 -2,2 v 8.5 c 0,1.104 0.895,2 2,2 H 8.369 M 1.75,7.75 h 14.5 M 7.5,5.25 A 0.75,0.75 0 0 1 6.75,6 0.75,0.75 0 0 1 6,5.25 0.75,0.75 0 0 1 6.75,4.5 0.75,0.75 0 0 1 7.5,5.25 Z M 5,5.25 A 0.75,0.75 0 0 1 4.25,6 0.75,0.75 0 0 1 3.5,5.25 0.75,0.75 0 0 1 4.25,4.5 0.75,0.75 0 0 1 5,5.25 Z"/></svg>