#filter dumbComments emptyLines substitution
# This Source Code Form is subject to the terms of the Mozilla Public
# License, v. 2.0. If a copy of the MPL was not distributed with this
# file, You can obtain one at http://mozilla.org/MPL/2.0/.
<svg xmlns="http://www.w3.org/2000/svg" width="18" height="18" fill="context-fill" fill-opacity="context-fill-opacity" viewBox="0 0 18 18"><path d="M8.998 1.4a7.58 7.58 0 0 1 5.886 2.796l.095-.68a.75.75 0 0 1 1.485.205l-.385 2.782a.8.8 0 0 1-.053.182l-.006.014a1 1 0 0 1-.06.11q-.007.013-.017.025a1 1 0 0 1-.07.086q-.014.014-.028.026a.7.7 0 0 1-.172.122l-.018.008q-.017.01-.036.019a1 1 0 0 1-.103.032q-.045.009-.09.015a1 1 0 0 1-.084.006h-.027a1 1 0 0 1-.082-.005l-2.78-.385a.75.75 0 0 1 .205-1.486l1.299.18a6.098 6.098 0 1 0 .087 6.97.75.75 0 1 1 1.24.842A7.599 7.599 0 0 1 1.4 8.998 7.6 7.6 0 0 1 9 1.4"/></svg>
