#filter dumbComments emptyLines substitution
# This Source Code Form is subject to the terms of the Mozilla Public
# License, v. 2.0. If a copy of the MPL was not distributed with this
# file, You can obtain one at http://mozilla.org/MPL/2.0/.
<svg xmlns="http://www.w3.org/2000/svg" height="18" width="18" viewBox="0 0 18 18"><g stroke-linecap="round" stroke-width="1.5" fill="none" stroke="context-fill" stroke-opacity="context-fill-opacity" stroke-linejoin="round" class="nc-icon-wrapper"><path d="M 14.25 4.75 L 12 4.75 L 11.493 3.399 C 11.347 3.009 10.974 2.75 10.557 2.75 L 7.443 2.75 C 7.026 2.75 6.653 3.009 6.507 3.399 L 6 4.75 L 3.75 4.75 C 2.645 4.75 1.75 5.645 1.75 6.75 L 1.75 13.25 C 1.75 14.355 2.645 15.25 3.75 15.25 L 14.25 15.25 C 15.355 15.25 16.25 14.355 16.25 13.25 L 16.25 6.75 C 16.25 5.645 15.355 4.75 14.25 4.75 Z" fill="none" stroke-linecap="round" stroke-linejoin="round" stroke-width="1.5"></path><circle cx="9" cy="10" r="2.75" fill="none" stroke-linecap="round" stroke-linejoin="round" stroke-width="1.5" data-color="color-2"></circle><circle cx="4.25" cy="7.25" r="0.75" data-color="color-2" data-stroke="none"></circle></g></svg>
