#filter dumbComments emptyLines substitution
# This Source Code Form is subject to the terms of the Mozilla Public
# License, v. 2.0. If a copy of the MPL was not distributed with this
# file, You can obtain one at http://mozilla.org/MPL/2.0/.
<svg fill="none" stroke="context-fill" stroke-width="1.5" stroke-opacity="context-fill-opacity" height="18" width="18" viewBox="0 0 18 18" xmlns="http://www.w3.org/2000/svg" xmlns:svg="http://www.w3.org/2000/svg"><path class="nc-icon-wrapper" d="M 11.296,11.296 14.5,14.5 M 12.25,9 A 3.25,3.25 0 0 1 9,12.25 3.25,3.25 0 0 1 5.75,9 3.25,3.25 0 0 1 9,5.75 3.25,3.25 0 0 1 12.25,9 Z m -5.5,6.25 h -2 c -1.105,0 -2,-0.895 -2,-2 v -2 m 8.5,-8.5 h 2 c 1.105,0 2,0.895 2,2 v 2 m -12.5,0 v -2 c 0,-1.105 0.895,-2 2,-2 h 2"/></svg>