#filter dumbComments emptyLines substitution
# This Source Code Form is subject to the terms of the Mozilla Public
# License, v. 2.0. If a copy of the MPL was not distributed with this
# file, You can obtain one at http://mozilla.org/MPL/2.0/.
<svg fill="context-fill" width="18px" height="18px" viewBox="0 0 18 18" xmlns="http://www.w3.org/2000/svg" xmlns:svg="http://www.w3.org/2000/svg"><path d="M 16.525,8.803 11.99,7.01 10.197,2.475 C 9.97,1.903 9.029,1.903 8.802,2.475 L 7.009,7.01 2.474,8.803 C 2.188,8.916 1.999,9.193 1.999,9.5 c 0,0.307 0.188,0.584 0.475,0.697 l 4.535,1.793 1.793,4.535 c 0.113,0.286 0.39,0.474 0.697,0.474 0.307,0 0.584,-0.188 0.697,-0.474 l 1.793,-4.535 4.535,-1.793 c 0.286,-0.113 0.475,-0.39 0.475,-0.697 0,-0.307 -0.188,-0.584 -0.475,-0.697 z m -13.5,-3.18 c 0.068,0.204 0.26,0.342 0.475,0.342 0.215,0 0.406,-0.138 0.475,-0.342 L 4.396,4.36 5.659,3.939 C 5.863,3.871 6.001,3.68 6.001,3.465 6.001,3.25 5.863,3.059 5.659,2.991 L 4.396,2.57 3.975,1.307 C 3.838,0.899 3.163,0.899 3.026,1.307 L 2.605,2.57 1.342,2.991 C 1.138,3.059 1,3.25 1,3.465 1,3.68 1.138,3.871 1.342,3.939 L 2.605,4.36 3.026,5.623 Z"/></svg>