#filter dumbComments emptyLines substitution
# This Source Code Form is subject to the terms of the Mozilla Public
# License, v. 2.0. If a copy of the MPL was not distributed with this
# file, You can obtain one at http://mozilla.org/MPL/2.0/.
<svg fill="none" stroke="context-fill" stroke-width="1.5" stroke-opacity="context-fill-opacity" height="18" width="18" viewBox="0 0 18 18" xmlns="http://www.w3.org/2000/svg" xmlns:svg="http://www.w3.org/2000/svg"><path class="nc-icon-wrapper" d="m 11.702,11.298 4.59,-4.5899998 M 17.25,9 A 3.25,3.25 0 0 1 14,12.25 3.25,3.25 0 0 1 10.75,9 3.25,3.25 0 0 1 14,5.75 3.25,3.25 0 0 1 17.25,9 Z m -6,-5.048 V 2.664 C 11.25,2.269 10.813,2.03 10.48,2.243 L 5,5.751 H 2.25 c -0.828,0 -1.5,0.672 -1.5,1.5 v 3.5 c 0,0.828 0.672,1.5 1.5,1.5 H 5 l 5.48,3.508 c 0.333,0.213 0.77,-0.026 0.77,-0.421 V 14.05"/></svg>