#filter dumbComments emptyLines substitution
# This Source Code Form is subject to the terms of the Mozilla Public
# License, v. 2.0. If a copy of the MPL was not distributed with this
# file, You can obtain one at http://mozilla.org/MPL/2.0/.
<svg fill="context-fill" stroke-opacity="context-fill-opacity" width="18px" height="18px" viewBox="0 0 18 18" xmlns="http://www.w3.org/2000/svg" xmlns:svg="http://www.w3.org/2000/svg"><path d="m 9.75,3 h -6 C 2.233,3 1,4.233 1,5.75 v 6.5 C 1,13.767 2.233,15 3.75,15 h 6 c 1.517,0 2.75,-1.233 2.75,-2.75 V 5.75 C 12.5,4.233 11.267,3 9.75,3 Z M 5,8 C 4.448,8 4,7.552 4,7 4,6.448 4.448,6 5,6 5.552,6 6,6.448 6,7 6,7.552 5.552,8 5,8 Z M 17.386,5.019 C 17.001,4.792 16.538,4.785 16.148,5 L 14,6.181 v 5.637 l 2.147,1.181 c 0.19,0.105 0.397,0.157 0.604,0.157 0.219,0 0.438,-0.059 0.635,-0.175 C 17.771,12.753 18,12.351 18,11.904 V 6.096 C 18,5.649 17.771,5.247 17.386,5.019 Z"/></svg>