#filter dumbComments emptyLines substitution
# This Source Code Form is subject to the terms of the Mozilla Public
# License, v. 2.0. If a copy of the MPL was not distributed with this
# file, You can obtain one at http://mozilla.org/MPL/2.0/.
<svg fill="context-fill" stroke-opacity="context-fill-opacity" width="18px" height="18px" viewBox="0 0 18 18" xmlns="http://www.w3.org/2000/svg" xmlns:svg="http://www.w3.org/2000/svg"><path d="m 2,16.75 c -0.192,0 -0.384,-0.073 -0.53,-0.22 -0.293,-0.293 -0.293,-0.768 0,-1.061 l 14,-13.999 c 0.293,-0.293 0.768,-0.293 1.061,0 0.293,0.293 0.293,0.768 0,1.061 L 2.53,16.53 C 2.384,16.676 2.192,16.75 2,16.75 Z M 17.386,5.019 C 17.018,4.802 16.581,4.792 16.203,4.979 L 14,7.182 v 4.637 L 16.147,13 c 0.19,0.105 0.397,0.157 0.604,0.157 0.219,0 0.438,-0.059 0.635,-0.175 C 17.771,12.754 18,12.352 18,11.905 V 6.096 C 18,5.649 17.771,5.247 17.386,5.019 Z M 3.089,14.911 12.477,5.523 C 12.359,4.114 11.189,3 9.75,3 h -6 C 2.233,3 1,4.233 1,5.75 v 6.5 c 0,1.288 0.893,2.363 2.089,2.661 z M 5,6 C 5.552,6 6,6.448 6,7 6,7.552 5.552,8 5,8 4.448,8 4,7.552 4,7 4,6.448 4.448,6 5,6 Z m 1.182,9 H 9.75 c 1.517,0 2.75,-1.233 2.75,-2.75 V 8.682 Z"/></svg>