#filter dumbComments emptyLines substitution
# This Source Code Form is subject to the terms of the Mozilla Public
# License, v. 2.0. If a copy of the MPL was not distributed with this
# file, You can obtain one at http://mozilla.org/MPL/2.0/.
<svg xmlns="http://www.w3.org/2000/svg" fill="context-fill" fill-opacity="context-fill-opacity" viewBox="0 0 512 512"><path d="M104 160a56 56 0 1156-56 56.06 56.06 0 01-56 56zM256 160a56 56 0 1156-56 56.06 56.06 0 01-56 56zM408 160a56 56 0 1156-56 56.06 56.06 0 01-56 56zM104 312a56 56 0 1156-56 56.06 56.06 0 01-56 56zM256 312a56 56 0 1156-56 56.06 56.06 0 01-56 56zM408 312a56 56 0 1156-56 56.06 56.06 0 01-56 56zM104 464a56 56 0 1156-56 56.06 56.06 0 01-56 56zM256 464a56 56 0 1156-56 56.06 56.06 0 01-56 56zM408 464a56 56 0 1156-56 56.06 56.06 0 01-56 56z"/></svg>