#filter dumbComments emptyLines substitution
# This Source Code Form is subject to the terms of the Mozilla Public
# License, v. 2.0. If a copy of the MPL was not distributed with this
# file, You can obtain one at http://mozilla.org/MPL/2.0/.
<svg xmlns="http://www.w3.org/2000/svg" fill="context-fill" fill-opacity="context-fill-opacity" viewBox="0 0 512 512"><path d="M204 240H68a36 36 0 01-36-36V68a36 36 0 0136-36h136a36 36 0 0136 36v136a36 36 0 01-36 36zM444 240H308a36 36 0 01-36-36V68a36 36 0 0136-36h136a36 36 0 0136 36v136a36 36 0 01-36 36zM204 480H68a36 36 0 01-36-36V308a36 36 0 0136-36h136a36 36 0 0136 36v136a36 36 0 01-36 36zM444 480H308a36 36 0 01-36-36V308a36 36 0 0136-36h136a36 36 0 0136 36v136a36 36 0 01-36 36z"/></svg>