#filter dumbComments emptyLines substitution
# This Source Code Form is subject to the terms of the Mozilla Public
# License, v. 2.0. If a copy of the MPL was not distributed with this
# file, You can obtain one at http://mozilla.org/MPL/2.0/.
<svg xmlns="http://www.w3.org/2000/svg" fill="context-fill" fill-opacity="context-fill-opacity" viewBox="0 0 512 512"><path d="M428 224H288a48 48 0 01-48-48V36a4 4 0 00-4-4h-92a64 64 0 00-64 64v320a64 64 0 0064 64h224a64 64 0 0064-64V228a4 4 0 00-4-4z"/><path d="M419.22 188.59L275.41 44.78a2 2 0 00-3.41 1.41V176a16 16 0 0016 16h129.81a2 2 0 001.41-3.41z"/></svg>