#filter dumbComments emptyLines substitution
# This Source Code Form is subject to the terms of the Mozilla Public
# License, v. 2.0. If a copy of the MPL was not distributed with this
# file, You can obtain one at http://mozilla.org/MPL/2.0/.
<svg xmlns="http://www.w3.org/2000/svg" fill="context-fill" fill-opacity="context-fill-opacity" viewBox="0 0 512 512"><path d="M104 496H72a24 24 0 01-24-24V328a24 24 0 0124-24h32a24 24 0 0124 24v144a24 24 0 01-24 24zM328 496h-32a24 24 0 01-24-24V232a24 24 0 0124-24h32a24 24 0 0124 24v240a24 24 0 01-24 24zM440 496h-32a24 24 0 01-24-24V120a24 24 0 0124-24h32a24 24 0 0124 24v352a24 24 0 01-24 24zM216 496h-32a24 24 0 01-24-24V40a24 24 0 0124-24h32a24 24 0 0124 24v432a24 24 0 01-24 24z"/></svg>