#filter dumbComments emptyLines substitution
# This Source Code Form is subject to the terms of the Mozilla Public
# License, v. 2.0. If a copy of the MPL was not distributed with this
# file, You can obtain one at http://mozilla.org/MPL/2.0/.
<svg xmlns="http://www.w3.org/2000/svg" fill="context-fill" fill-opacity="context-fill-opacity" viewBox="0 0 512 512"><path d="M265.12 60.12a12 12 0 00-18.23 0C215.23 97.15 112 225.17 112 320c0 88.37 55.64 144 144 144s144-55.63 144-144c0-94.83-103.23-222.85-134.88-259.88zM272 412a12 12 0 01-11.34-16 11.89 11.89 0 0111.41-8A60.06 60.06 0 00332 328.07a11.89 11.89 0 018-11.41A12 12 0 01356 328a84.09 84.09 0 01-84 84z"/></svg>